<?xml version="1.0" encoding="UTF-8" standalone="no"?>
<!-- Created with Inkscape (http://www.inkscape.org/) -->

<svg
   xmlns:dc="http://purl.org/dc/elements/1.1/"
   xmlns:cc="http://creativecommons.org/ns#"
   xmlns:rdf="http://www.w3.org/1999/02/22-rdf-syntax-ns#"
   xmlns:svg="http://www.w3.org/2000/svg"
   xmlns="http://www.w3.org/2000/svg"
   xmlns:sodipodi="http://sodipodi.sourceforge.net/DTD/sodipodi-0.dtd"
   xmlns:inkscape="http://www.inkscape.org/namespaces/inkscape"
   width="381.28061mm"
   height="214.94998mm"
   viewBox="0 0 1350.9943 761.63379"
   id="svg4673"
   version="1.1"
   inkscape:version="0.91 r13725"
   sodipodi:docname="logo.svg">
  <defs
     id="defs4675" />
  <sodipodi:namedview
     id="base"
     pagecolor="#ffffff"
     bordercolor="#666666"
     borderopacity="1.0"
     inkscape:pageopacity="0.0"
     inkscape:pageshadow="2"
     inkscape:zoom="0.35"
     inkscape:cx="590.7611"
     inkscape:cy="343.72566"
     inkscape:document-units="px"
     inkscape:current-layer="layer1"
     showgrid="false"
     fit-margin-top="0"
     fit-margin-left="0"
     fit-margin-right="0"
     fit-margin-bottom="0"
     inkscape:window-width="1280"
     inkscape:window-height="752"
     inkscape:window-x="0"
     inkscape:window-y="0"
     inkscape:window-maximized="1" />
  <metadata
     id="metadata4678">
    <rdf:RDF>
      <cc:Work
         rdf:about="">
        <dc:format>image/svg+xml</dc:format>
        <dc:type
           rdf:resource="http://purl.org/dc/dcmitype/StillImage" />
        <dc:title></dc:title>
      </cc:Work>
    </rdf:RDF>
  </metadata>
  <g
     inkscape:label="Ebene 1"
     inkscape:groupmode="layer"
     id="layer1"
     transform="translate(575.7611,-114.45409)">
    <path
       style="fill:#585857;fill-opacity:1"
       d="m 674.89279,875.72141 c -24.7145,-2.31642 -42.8456,-9.76364 -56.1655,-23.06948 -6.3883,-6.38156 -10.5233,-12.30338 -14.8195,-21.22336 -1.3188,-2.73816 -2.2542,-5.11603 -2.0789,-5.28416 0.4689,-0.44949 31.3116,-16.41059 31.7114,-16.41059 0.1869,0 0.9815,1.30101 1.7659,2.89114 4.1569,8.4276 11.0206,15.57895 19.6824,20.50737 9.9708,5.67325 21.8563,8.45259 36.132,8.44927 22.2028,-0.005 38.0468,-6.85705 43.6505,-18.87695 2.5518,-5.47344 3.1833,-12.4965 1.5858,-17.63397 -3.7525,-12.06814 -16.9081,-19.28884 -41.1328,-22.57669 -16.6174,-2.25539 -19.7314,-2.7307 -25.7405,-3.92909 -31.5001,-6.28196 -49.1395,-18.39131 -55.7408,-38.2659 -4.7974,-14.44387 -3.9659,-31.68533 2.1117,-43.78621 5.4499,-10.8509 14.3994,-19.22642 27.329,-25.57608 15.9648,-7.84027 36.5548,-11.30569 57.489,-9.67576 30.0549,2.34008 51.6846,13.25958 64.2858,32.45396 2.991,4.55611 4.3914,7.34873 3.921,7.81922 -0.2124,0.21238 -7.0931,3.84016 -15.2904,8.06175 l -14.9043,7.67564 -0.7461,-1.02026 c -5.0669,-6.92864 -12.4816,-12.55477 -21.5516,-16.35299 -11.8423,-4.95916 -24.1459,-6.41682 -37.7636,-4.47389 -8.6271,1.23088 -16.6551,4.42763 -21.6135,8.60662 -9.3785,7.90428 -11.0468,21.38374 -3.6293,29.32454 5.6667,6.06649 16.23,9.93081 33.823,12.37344 3.6932,0.51276 9.8183,1.36492 13.6113,1.89372 46.0782,6.42371 67.7467,21.10984 73.5726,49.86477 0.765,3.77558 0.855,5.25902 0.8451,13.92508 -0.012,10.50553 -0.3675,13.2476 -2.6148,20.16889 -7.9925,24.61627 -31.9344,40.21864 -67.5077,43.99332 -5.7354,0.60856 -24.3261,0.6988 -30.2172,0.14665 z m -703.760924,-0.19067 c -25.28567,-1.81086 -45.70574,-9.12766 -61.92589,-22.18896 -4.62024,-3.72044 -11.775466,-11.11316 -15.322106,-15.83054 -11.44834,-15.22754 -18.56048,-34.59591 -20.47394,-55.75627 -0.56442,-6.2414 -0.47721,-17.84154 0.18164,-24.16565 3.27054,-31.39263 18.45148,-58.45301 42.142206,-75.11925 12.88679,-9.06578 29.45365,-15.22627 47.56402,-17.68699 5.97553,-0.81191 21.09193,-1.12755 27.0993997,-0.56585 9.13050001,0.85366 18.61958,3.01179 27.2441503,6.19616 11.72074,4.32754 25.7691,13.12487 35.01465,21.92675 l 2.81553,2.68045 -12.75607,12.31068 c -7.01583,6.77088 -12.8562,12.34852 -12.97857,12.39474 -0.12239,0.0462 -1.48157,-1.01843 -3.0204,-2.36585 -9.85978,-8.63349 -23.2166203,-14.42309 -37.29534,-16.16595 -4.00034,-0.49523 -14.08477,-0.50071 -18.47581,-0.0101 -31.29619,3.49705 -52.92696,23.8718 -58.79718,55.38298 -0.98814,5.30442 -1.35213,16.33181 -0.73398,22.23933 2.83351,27.0811 17.63014,47.40779 40.7151,55.93194 4.39753,1.62378 10.99378,3.17765 16.63707,3.91912 6.3093,0.829 16.53822,0.84351 21.7641797,0.031 14.26443,-2.21802 28.3314403,-8.60577 38.2229303,-17.3568 l 2.96956,-2.62722 13.12726,13.32789 13.12722,13.32785 -1.17478,1.24838 c -0.64612,0.6866 -2.6797,2.51667 -4.51906,4.06685 -16.07534,13.54791 -34.20431,21.35028 -56.1573703,24.16905 -4.48135,0.57539 -20.4283897,1.01324 -24.9944197,0.68626 z m 194.360944,-0.70652 c -40.02107,-4.56693 -67.856584,-28.98405 -75.506484,-66.23381 -2.31064,-11.25115 -2.21238,-8.02952 -2.35783,-77.2906 l -0.133,-63.32543 19.226284,0 19.22631,0 0,60.39474 c 0,39.38536 0.13594,61.73869 0.3908,64.25806 2.54067,25.11552 15.95294,41.43095 37.98731,46.20992 10.12599,2.19619 21.77492,1.82672 30.7001,-0.97377 17.93234,-5.6267 28.97756,-20.22176 31.81857,-42.04478 0.49541,-3.80557 0.57312,-12.77095 0.57312,-66.12331 l 0,-61.72086 19.21214,0 19.21213,0 -0.004,61.83322 c -0.004,38.60322 -0.14609,63.51505 -0.38245,66.30984 -0.77983,9.22045 -3.056,19.94463 -5.7914,27.2862 -10.65005,28.584 -32.85394,45.95221 -65.07508,50.90268 -6.67269,1.02518 -22.2253,1.30202 -29.09668,0.5179 z m -741.25389,-105.19341 0,-101.65643 22.10328,0.009 22.10328,0.009 31.52281,43.43083 c 17.33756,23.88699 31.61616,43.4402 31.73024,43.45162 0.11412,0.0116 14.43805,-19.53647 31.831,-43.43972 l 31.62355,-43.46045 21.98166,0 21.98163,0 0,101.65643 0,101.65644 -19.2112,0 -19.2112,0 -0.0942,-73.30623 -0.0942,-73.30623 -32.8285,43.81911 -32.82851,43.81908 -3.92539,0.016 -3.92539,0.016 -32.07404,-43.8938 -32.07404,-43.89379 -0.0942,73.36483 -0.0942,73.36484 -19.2112,0 -19.2112,0 0,-101.65644 z m 261.50884,0 0,-101.65643 76.10243,0 76.10243,0 0,18.65256 0,18.65255 -56.8903,0 -56.8903,0 0,23.12917 0,23.12917 54.83852,0 54.83851,0 0,18.09298 0,18.09298 -54.83851,0 -54.83852,0 0,22.75613 0,22.75612 56.8903,0 56.8903,0 0,19.0256 0,19.02561 -76.10243,0 -76.10243,0 0,-101.65644 z m 628.9642,-0.24584 0,-101.90227 51.76084,0.23592 c 33.08501,0.15078 53.03955,0.38148 55.30483,0.63933 27.77256,3.1612 48.76456,17.95928 57.93206,40.83858 4.0386,10.07921 5.6367,20.90534 4.7632,32.26892 -1.2017,15.63446 -6.1145,28.20017 -15.0855,38.58461 -7.0788,8.19414 -19.7399,15.35277 -32.40793,18.32367 -1.59013,0.3729 -2.89114,0.80206 -2.89114,0.9537 0,0.15161 13.67757,15.69118 30.39457,34.53231 30.0671,33.88752 30.3947,34.27366 30.4037,35.84204 l 0.01,1.58547 -22.8772,0 -22.8772,0 -29.5855,-33.94765 -29.58545,-33.94766 -18.23049,0 -18.23049,0 0,33.94766 0,33.94765 -19.39866,0 -19.39865,0 0,-101.90228 z m 104.31218,-1.62915 c 13.40153,-2.30284 22.49636,-10.28207 25.94962,-22.76653 0.68858,-2.48948 0.81893,-3.92028 0.81383,-8.93308 -0.01,-5.42368 -0.0989,-6.27379 -1.02303,-9.30789 -3.95782,-12.99411 -13.59484,-20.78014 -27.94795,-22.57985 -1.84474,-0.23129 -14.88795,-0.38118 -33.17368,-0.38118 l -30.13366,0 0,32.26892 0,32.26892 31.1009,0 c 26.1854,0 31.62456,-0.09 34.41397,-0.56931 z m 103.10425,1.87499 0,-101.65643 19.0256,0 19.0256,0 0,101.65643 0,101.65644 -19.0256,0 -19.0256,0 0,-101.65644 z M 80.249316,541.3167 c -10.66926,-24.09847 -19.49423,-43.81792 -19.61107,-43.82102 -0.1168,-0.004 -15.55586,8.80767 -34.30903,19.57952 -18.7531303,10.77185 -34.1858103,19.57709 -34.2948103,19.5672 -0.10901,-0.01 -21.9377597,-11.06865 -48.5083197,-24.57504 l -48.310126,-24.5571 -0.0937,-147.51531 -0.0937,-147.51533 48.588556,-18.13641 c 26.72371,-9.97505 48.6732897,-18.04269 48.7768797,-17.92809 0.1036,0.11457 0.0205,0.27461 -0.18469,0.35563 -0.20518,0.081 -16.1531197,9.17135 -35.4398597,20.20072 l -35.06681,20.05345 -0.0937,140.70005 -0.0937,140.70005 35.16055,28.7156 35.1605597,28.71561 0.18652,-137.72009 0.18653,-137.72011 29.2165003,87.85354 c 16.06907,48.31944 40.24278,121.04435 53.71937,161.61093 13.47658,40.56655 24.58679,73.75735 24.68938,73.75735 0.10259,0 11.212794,-33.1908 24.689384,-73.75735 13.47658,-40.56658 37.65029,-113.29149 53.71936,-161.61093 l 29.21651,-87.85354 0.18652,137.72011 0.18653,137.72009 35.16055,-28.71561 35.16056,-28.7156 -0.0937,-140.70005 -0.0937,-140.70005 -35.0668,-20.05345 C 223.61311,165.9421 207.66517,156.85174 207.46,156.77075 c -0.20518,-0.081 -0.2883,-0.24106 -0.1847,-0.35563 0.10359,-0.1146 22.05318,7.95304 48.77688,17.92809 l 48.58857,18.13641 -0.0937,147.51404 -0.0937,147.51403 -48.31012,24.55833 c -26.57056,13.50706 -48.39932,24.56642 -48.50832,24.57634 -0.10901,0.0101 -15.54169,-8.79531 -34.29482,-19.56716 -18.75317,-10.77185 -34.19222,-19.58265 -34.30903,-19.57952 -0.11684,0.004 -8.94181,19.72255 -19.61107,43.82102 -10.66956,24.09843 -19.482894,43.81534 -19.585484,43.81534 -0.10259,0 -8.91593,-19.71691 -19.58519,-43.81534 z m 17.96495,19.68527 C 86.756936,419.99337 74.579016,314.5079 66.765576,288.59296 63.695926,278.41169 55.937356,268.64267 45.555566,261.88684 37.174826,256.43317 27.847986,252.93493 11.757956,249.21027 7.5718757,248.24124 2.4681557,246.86742 0.41637571,246.15733 -9.4999943,242.72542 -23.580994,236.3479 -31.433984,231.73178 c -4.08938,-2.40381 -8.44711,-4.06479 -12.7955,-4.8771 -9.45129,-1.76557 -12.33609,-2.95407 -15.6802,-6.46004 -3.19455,-3.34912 -4.77136,-7.20235 -4.77136,-11.65954 0,-1.69082 0.16191,-2.24657 0.83937,-2.88118 1.23468,-1.15661 2.65481,-1.58209 5.28057,-1.58209 5.0394,0 11.99311,2.72987 21.2519,8.34299 10.6824,6.47617 14.90951,7.99081 26.72057,9.57438 11.54567971,1.54799 14.0984597,2.43421 34.13418,11.84984 10.82054,5.08504 14.60831,6.19377 23.12917,6.7702 6.88906,0.46605 11.59331,1.30038 23.20941,4.11632 l 9.03347,2.18986 2.90417,-0.71305 c 1.59729,-0.39218 3.20462,-0.71504 3.57185,-0.71746 0.93356,-0.006 3.61852,-1.42552 3.85314,-2.03687 0.10691,-0.27861 -0.13565,-1.15349 -0.53903,-1.94419 -2.98873,-5.85833 -5.78613,-22.76962 -4.91976,-29.74155 0.59144,-4.75952 1.61009,-7.08647 4.27916,-9.77489 3.36097,-3.38541 5.31516,-4.05956 11.76738,-4.05956 6.449904,0 8.403874,0.67383 11.771854,4.05956 2.62915,2.64299 3.69302,5.05961 4.27207,9.70423 0.85212,6.83494 -1.98799,24.04067 -4.92148,29.81474 -0.40099,0.78931 -0.64161,1.66305 -0.53469,1.94166 0.23461,0.61135 2.91957,2.03071 3.85313,2.03687 0.36723,0.002 1.97456,0.32528 3.57185,0.71746 l 2.90417,0.71305 9.03347,-2.18986 c 11.66904,-2.82878 16.32845,-3.65248 23.31513,-4.12173 3.13584,-0.21062 6.97845,-0.70952 8.53914,-1.10868 3.85056,-0.98481 10.00404,-3.48786 18.74411,-7.62455 13.64102,-6.45628 17.9019,-8.00379 25.21124,-9.1564 2.46214,-0.38826 6.71794,-1.05915 9.45737,-1.49087 7.75562,-1.22224 12.19668,-2.99783 21.59157,-8.63253 9.77304,-5.86148 16.50699,-8.51897 21.58668,-8.51897 2.62575,0 4.04588,0.42548 5.28057,1.58209 0.67746,0.63461 0.83937,1.19036 0.83937,2.88118 0,4.45719 -1.57682,8.31042 -4.77136,11.65954 -3.34411,3.50597 -6.22891,4.69447 -15.6802,6.46004 -4.34515,0.8117 -8.70381,2.47229 -12.79551,4.87491 -10.03933,5.89503 -28.06508,13.68331 -36.95974,15.96898 -1.90894,0.49054 -6.15676,1.51746 -9.43961,2.28203 -10.72709,2.49835 -17.80368,4.96858 -25.14906,8.77878 -13.51713,7.01162 -23.11055,17.90104 -26.84498,30.47156 -7.22977,24.33629 -17.62782,111.98329 -28.93347,243.88546 -1.12554,13.1314 -2.42692,28.70162 -2.89193,34.60049 -0.46505,5.89887 -0.937184,10.72522 -1.049214,10.72522 -0.11203,0 -0.84134,-7.84806 -1.62072,-17.44014 z M 15.711476,146.50804 c 0.80165,-0.78803 83.58106,-32.1903 84.496084,-32.0535 0.7896,0.11807 83.4575,31.52019 83.90543,31.8722 0.0855,0.0672 0.0855,0.19145 0,0.27613 -0.0855,0.0847 -19.08187,-3.77953 -42.21417,-8.58713 l -42.058684,-8.74111 -41.31825,8.58406 c -22.725,4.72127 -41.73789,8.68128 -42.25084,8.80006 -0.61333,0.14206 -0.80489,0.0905 -0.55957,-0.15071 z"
       id="path4746"
       inkscape:connector-curvature="0" />
  </g>
</svg>
